<svg xmlns="http://www.w3.org/2000/svg" viewBox="0 0 306 306"><defs><style>.cls-1{fill:#fff;}.cls-2{fill:#00c2a8;}</style></defs><title>icon</title><g id="Capa_2" data-name="Capa 2"><g id="Capa_2-2" data-name="Capa 2"><circle class="cls-1" cx="153" cy="153" r="153"/><path class="cls-2" d="M114.76,183.39l21,3.5c.05-.31,6.22-30.2,51.25-50.17a53.45,53.45,0,0,1,7.4,10.43s8.36-3.8,19.75-8.36a106.3,106.3,0,0,0-8.35-11.09c43.55-24.31,46.92-54.88,47.06-56.31l-21.19-2,0-.19c-.14,1.1-4.05,27.2-50.55,46.84C122.48,140.86,115.05,181.66,114.76,183.39Z"/><path class="cls-2" d="M285.53,104.06l-21.18-2,0-.19c-.15,1.1-4.06,27.2-50.56,46.85-58.66,24.78-66.09,65.59-66.38,67.31l21,3.5c.05-.27,5-24.44,38.74-43.84a61.61,61.61,0,0,1,.91,10.56A61.16,61.16,0,1,1,97.35,150.44l.88-1.22c1.76-2.42,3.57-4.92,5.33-7.5l42.95-65.54L169,110.63l.28.43a98.75,98.75,0,0,0,19.59-8.9l-.31-.48-42-64.4L85.92,129.82c-1.56,2.29-3.18,4.53-4.91,6.9L80.12,138a82.44,82.44,0,0,0,65.63,130.76h1.17a82.45,82.45,0,0,0,82.43-82.44,83.1,83.1,0,0,0-2.45-20.06C281.44,141.28,285.39,105.61,285.53,104.06Z"/></g></g></svg>