<svg xmlns="http://www.w3.org/2000/svg" viewBox="0 0 675.08 234.53"><defs><style>.cls-1{fill:#00c2a8;}.cls-2{fill:#4ffbdf;}</style></defs><title>logo_weather</title><g id="Capa_2" data-name="Capa 2"><g id="Capa_2-2" data-name="Capa 2"><path class="cls-1" d="M50.29,146.11l21,3.49c0-.3,6.22-30.19,51.25-50.16a53.58,53.58,0,0,1,7.4,10.42s8.36-3.79,19.75-8.35a106.3,106.3,0,0,0-8.35-11.09c43.55-24.31,46.93-54.88,47.06-56.31l-21.19-2,0-.19c-.14,1.1-4.05,27.19-50.55,46.84C58,103.58,50.58,144.38,50.29,146.11Z"/><path class="cls-1" d="M221.06,66.78l-21.18-2,0-.19c-.15,1.1-4.06,27.2-50.56,46.84C90.68,136.25,83.25,177.05,83,178.78l21,3.5c0-.28,5-24.45,38.74-43.84a61.49,61.49,0,0,1,.92,10.55,61.17,61.17,0,0,1-62,61.16,61.32,61.32,0,0,1-60.29-61.52,60.65,60.65,0,0,1,11.6-35.48l.88-1.22c1.76-2.41,3.57-4.91,5.33-7.49L82,38.89l22.45,34.45.28.44a99.34,99.34,0,0,0,19.59-8.9l-.31-.48L82.08,0,21.45,92.54c-1.56,2.28-3.18,4.52-4.91,6.89l-.89,1.24A81.79,81.79,0,0,0,0,148.5a82.67,82.67,0,0,0,81.28,82.93h1.17A82.45,82.45,0,0,0,164.88,149a83,83,0,0,0-2.45-20.05C217,104,220.92,68.33,221.06,66.78Z"/><path class="cls-2" d="M315.83,86.39a23.87,23.87,0,0,1-1.89,9.45A24.16,24.16,0,0,1,301,108.75a24.55,24.55,0,0,1-18.11.31,23.22,23.22,0,0,1-7.47-4.62,23.14,23.14,0,0,1-7.5,4.62,24.19,24.19,0,0,1-8.69,1.58,23.87,23.87,0,0,1-9.45-1.89,24.19,24.19,0,0,1-12.91-12.91A23.87,23.87,0,0,1,235,86.39V28.63h16.19V86.39a8.05,8.05,0,0,0,.62,3.18,7.72,7.72,0,0,0,1.72,2.6,8,8,0,0,0,2.56,1.72,8.36,8.36,0,0,0,6.32,0,7.88,7.88,0,0,0,4.29-4.32,8.23,8.23,0,0,0,.62-3.18V28.63h16.19V86.39a8.05,8.05,0,0,0,.62,3.18,7.87,7.87,0,0,0,1.72,2.6,8,8,0,0,0,2.56,1.72,8.36,8.36,0,0,0,6.32,0,8,8,0,0,0,2.57-1.72,8.27,8.27,0,0,0,1.75-2.6,7.9,7.9,0,0,0,.65-3.18V28.63h16.13Z"/><path class="cls-2" d="M351.87,94.74a8.93,8.93,0,0,0,1.81.36q.9.09,1.8.09a15.35,15.35,0,0,0,4.35-.62,16.13,16.13,0,0,0,3.92-1.78,14.78,14.78,0,0,0,5.61-6.52l11.28,11.34a30.26,30.26,0,0,1-4.94,5.47,31.09,31.09,0,0,1-6,4.12,30.56,30.56,0,0,1-6.83,2.57,31.08,31.08,0,0,1-7.36.87,30.52,30.52,0,0,1-21.8-9,31,31,0,0,1-6.63-10.07,33.21,33.21,0,0,1-2.42-12.83,34.34,34.34,0,0,1,2.42-13.08A29.58,29.58,0,0,1,343.5,49.1a31.14,31.14,0,0,1,12-2.31,30.65,30.65,0,0,1,14.24,3.5,31.32,31.32,0,0,1,6.07,4.14,30.82,30.82,0,0,1,5,5.5ZM359.77,63a9.33,9.33,0,0,0-2.12-.51,21.58,21.58,0,0,0-2.17-.11,15.38,15.38,0,0,0-6,1.15,14.4,14.4,0,0,0-4.85,3.3A15.56,15.56,0,0,0,341.44,72a18.42,18.42,0,0,0-1.19,6.79q0,.86.09,1.92a20.46,20.46,0,0,0,.28,2.17c.13.74.29,1.44.48,2.12a8,8,0,0,0,.73,1.8Z"/><path class="cls-2" d="M446.52,109.51H442.8l-6-8.29a50.64,50.64,0,0,1-4.65,3.7,35.43,35.43,0,0,1-5.17,3,32,32,0,0,1-5.55,2,23.07,23.07,0,0,1-5.78.73,33.3,33.3,0,0,1-12-2.14,28.56,28.56,0,0,1-9.81-6.23,29.19,29.19,0,0,1-6.63-10,35.22,35.22,0,0,1-2.43-13.48,33.62,33.62,0,0,1,2.43-12.94,30.76,30.76,0,0,1,6.63-10.13,29.89,29.89,0,0,1,9.81-6.57,30.84,30.84,0,0,1,12-2.34,23.9,23.9,0,0,1,5.81.73,30.57,30.57,0,0,1,5.58,2,35.16,35.16,0,0,1,5.16,3.05,43.43,43.43,0,0,1,4.6,3.78l6-7.16h3.72ZM431,78.77a16,16,0,0,0-1.21-6.12,17.63,17.63,0,0,0-3.3-5.24,16.28,16.28,0,0,0-4.88-3.67,13.26,13.26,0,0,0-5.95-1.38,16.53,16.53,0,0,0-5.95,1.07,13.5,13.5,0,0,0-4.85,3.16,14.71,14.71,0,0,0-3.25,5.16,21.5,21.5,0,0,0,0,14A14.71,14.71,0,0,0,404.87,91a13.63,13.63,0,0,0,4.85,3.16,16.53,16.53,0,0,0,5.95,1.07,13.26,13.26,0,0,0,5.95-1.38,16.62,16.62,0,0,0,4.88-3.67,17.56,17.56,0,0,0,3.3-5.25A15.94,15.94,0,0,0,431,78.77Z"/><path class="cls-2" d="M488.54,109.51a26.22,26.22,0,0,1-10.49-2.11A27.3,27.3,0,0,1,463.64,93a26.22,26.22,0,0,1-2.11-10.49V64.56H454V49.22h7.51V25.07h15.34V49.22h23.35V64.56H476.87V82.5a11.53,11.53,0,0,0,3.38,8.23A12,12,0,0,0,484,93.24a11.39,11.39,0,0,0,4.57.93h11.68v15.34Z"/><path class="cls-2" d="M524.25,109.51h-15.4V25.07h15.4V51.75a18.09,18.09,0,0,1,5.7-3,20.83,20.83,0,0,1,6-.87A26.26,26.26,0,0,1,546.42,50,26.67,26.67,0,0,1,555,55.84a27.74,27.74,0,0,1,5.75,8.63A26.44,26.44,0,0,1,562.83,75v34.52H547.32V75h.11a11.31,11.31,0,0,0-.9-4.48,11.58,11.58,0,0,0-6.15-6.18,11.14,11.14,0,0,0-4.46-.9,11.53,11.53,0,0,0-10.77,7.08,11.31,11.31,0,0,0-.9,4.48Z"/><path class="cls-2" d="M597.8,94.74a8.93,8.93,0,0,0,1.81.36q.9.09,1.8.09a15.35,15.35,0,0,0,4.35-.62,16.13,16.13,0,0,0,3.92-1.78,14.78,14.78,0,0,0,5.61-6.52l11.28,11.34a29.89,29.89,0,0,1-4.94,5.47,31.09,31.09,0,0,1-6,4.12,30.38,30.38,0,0,1-6.83,2.57,31.08,31.08,0,0,1-7.36.87,30.52,30.52,0,0,1-21.8-9A31,31,0,0,1,573,91.6a33.21,33.21,0,0,1-2.42-12.83A34.34,34.34,0,0,1,573,65.69,29.58,29.58,0,0,1,589.43,49.1a31.14,31.14,0,0,1,12-2.31,30.45,30.45,0,0,1,7.39.9,31,31,0,0,1,6.86,2.6,31.56,31.56,0,0,1,6.06,4.14,30.82,30.82,0,0,1,5,5.5ZM605.7,63a9.33,9.33,0,0,0-2.12-.51,21.58,21.58,0,0,0-2.17-.11,15.42,15.42,0,0,0-5.95,1.15,14.4,14.4,0,0,0-4.85,3.3A15.56,15.56,0,0,0,587.37,72a18.42,18.42,0,0,0-1.19,6.79q0,.86.09,1.92a20.46,20.46,0,0,0,.28,2.17c.13.74.29,1.44.48,2.12a8,8,0,0,0,.73,1.8Z"/><path class="cls-2" d="M649.81,109.51h-15.4V49.1h3.72l5.08,7.17a27.19,27.19,0,0,1,18.27-7.05h13.6V64.56h-13.6a11.59,11.59,0,0,0-11.67,11.67Z"/><path class="cls-2" d="M299.36,211.51H283.17V195.33H250.79v16.18H234.66V163a31.56,31.56,0,0,1,2.54-12.6,32.89,32.89,0,0,1,6.91-10.3,32.26,32.26,0,0,1,10.26-6.93,32.57,32.57,0,0,1,25.22,0,32.43,32.43,0,0,1,17.23,17.23,31.56,31.56,0,0,1,2.54,12.6Zm-16.19-32.32V163a15.7,15.7,0,0,0-1.27-6.28,16.18,16.18,0,0,0-8.63-8.63,16.21,16.21,0,0,0-12.58,0,16.18,16.18,0,0,0-8.63,8.63,15.7,15.7,0,0,0-1.27,6.28v16.19Z"/><path class="cls-2" d="M327.28,234.53H311.77V151.1h3.72l6.15,7.28a39.34,39.34,0,0,1,4.57-3.72,33.58,33.58,0,0,1,5.16-3,30.38,30.38,0,0,1,5.55-2,23.43,23.43,0,0,1,5.81-.74,31.37,31.37,0,0,1,12,2.29,29.45,29.45,0,0,1,9.81,6.46,30.24,30.24,0,0,1,6.63,10.07,33.89,33.89,0,0,1,2.43,13.05,35.16,35.16,0,0,1-2.43,13.4,29.87,29.87,0,0,1-6.63,10.1,28.83,28.83,0,0,1-9.81,6.34,32.49,32.49,0,0,1-12,2.2,18.37,18.37,0,0,1-4-.45,28.48,28.48,0,0,1-3.95-1.21c-1.3-.51-2.57-1.08-3.83-1.72s-2.48-1.3-3.64-2Zm30.85-53.76a18.46,18.46,0,0,0-1.21-6.88,15.35,15.35,0,0,0-3.3-5.16,14.21,14.21,0,0,0-4.91-3.24,15.78,15.78,0,0,0-6-1.13,15.59,15.59,0,0,0-6,1.13,14.28,14.28,0,0,0-4.88,3.24,15.35,15.35,0,0,0-3.3,5.16,18.46,18.46,0,0,0-1.21,6.88,17.93,17.93,0,0,0,1.21,6.71,15.48,15.48,0,0,0,3.3,5.19,14.81,14.81,0,0,0,4.88,3.33,15.09,15.09,0,0,0,6,1.19,15.27,15.27,0,0,0,6-1.19,14.73,14.73,0,0,0,4.91-3.33,15.48,15.48,0,0,0,3.3-5.19A17.93,17.93,0,0,0,358.13,180.77Z"/><path class="cls-2" d="M397.62,234.53H382.11V151.1h3.72l6.15,7.28a39.34,39.34,0,0,1,4.57-3.72,33.58,33.58,0,0,1,5.16-3,30.12,30.12,0,0,1,5.55-2,23.43,23.43,0,0,1,5.81-.74,31.37,31.37,0,0,1,12,2.29,29.45,29.45,0,0,1,9.81,6.46,30.24,30.24,0,0,1,6.63,10.07,33.89,33.89,0,0,1,2.43,13.05,35.16,35.16,0,0,1-2.43,13.4,29.87,29.87,0,0,1-6.63,10.1,28.83,28.83,0,0,1-9.81,6.34,32.49,32.49,0,0,1-12,2.2,18.3,18.3,0,0,1-4-.45,28.07,28.07,0,0,1-4-1.21c-1.3-.51-2.58-1.08-3.84-1.72s-2.47-1.3-3.63-2Zm30.85-53.76a18.46,18.46,0,0,0-1.21-6.88,15.35,15.35,0,0,0-3.3-5.16,14.21,14.21,0,0,0-4.91-3.24,15.78,15.78,0,0,0-6-1.13,15.59,15.59,0,0,0-5.95,1.13,14.28,14.28,0,0,0-4.88,3.24,15.35,15.35,0,0,0-3.3,5.16,18.46,18.46,0,0,0-1.21,6.88,17.93,17.93,0,0,0,1.21,6.71,15.48,15.48,0,0,0,3.3,5.19,14.81,14.81,0,0,0,4.88,3.33,15.09,15.09,0,0,0,5.95,1.19,15.27,15.27,0,0,0,6-1.19,14.73,14.73,0,0,0,4.91-3.33,15.48,15.48,0,0,0,3.3-5.19A17.93,17.93,0,0,0,428.47,180.77Z"/></g></g></svg>